<svg id="Layer_1" data-name="Layer 1" xmlns="http://www.w3.org/2000/svg" xmlns:xlink="http://www.w3.org/1999/xlink" viewBox="0 0 499.22 150"><defs><style>.cls-1{fill:url(#radial-gradient);}.cls-2{fill:#303030;}</style><radialGradient id="radial-gradient" cx="90.62" cy="98.84" r="69.48" gradientTransform="translate(-0.16 -0.16)" gradientUnits="userSpaceOnUse"><stop offset="0" stop-color="#ff8e00"/><stop offset="1" stop-color="#9b0000"/></radialGradient></defs><title>logo</title><path class="cls-1" d="M138.71,61.33a70.21,70.21,0,0,1-27.25,55.56,63.75,63.75,0,0,0,26.13-11A70,70,0,0,0,135.2,39.4,70.1,70.1,0,0,1,138.71,61.33Z"/><path class="cls-1" d="M59.18,50.76A70.22,70.22,0,0,1,114.72,78,64.28,64.28,0,0,0,17.55,34.65a69.73,69.73,0,0,0-12.7,40.2c0,.52,0,1,0,1.56q2.17-2.64,4.59-5.06A70.11,70.11,0,0,1,59.18,50.76Z"/><path class="cls-1" d="M51.44,19a70.31,70.31,0,0,1,69.73,79.09c.69-1,1.33-2,2-3a64.28,64.28,0,0,0-6.83-76.66,70,70,0,0,0-88.61,4.67A70.38,70.38,0,0,1,51.44,19Z"/><path class="cls-1" d="M37.42,88.34A70,70,0,0,1,87.08,67.76a67.66,67.66,0,0,1,8.88.57c-1.12-.8-2.28-1.55-3.45-2.26a64.3,64.3,0,0,0-78.79,9.52,64.87,64.87,0,0,0-8.07,9.87A69.72,69.72,0,0,0,19.74,118,70,70,0,0,1,37.42,88.34Z"/><path class="cls-1" d="M72.61,113.67a64.12,64.12,0,0,0,14.15,30.15,69.64,69.64,0,0,0,19.52-6.43,69.87,69.87,0,0,1-14.55-6.68A71,71,0,0,1,72.61,113.67Z"/><path class="cls-1" d="M91.39,123.32q1.68,1.19,3.45,2.25a63.72,63.72,0,0,0,18.68,7.62,70.5,70.5,0,0,0,17.33-16.34,70.1,70.1,0,0,1-30.55,7A71.88,71.88,0,0,1,91.39,123.32Z"/><path class="cls-1" d="M79.77,144.65A70.4,70.4,0,0,1,65.6,102.18a69.2,69.2,0,0,1,.55-8.63c-.7,1-1.37,2-2,3a63.9,63.9,0,0,0-9.53,33.7,64.57,64.57,0,0,0,1.11,11.88,70.15,70.15,0,0,0,19.13,2.67C76.5,144.85,78.14,144.77,79.77,144.65Z"/><path class="cls-1" d="M49.3,140A70.17,70.17,0,0,1,75.84,74.74a64.29,64.29,0,0,0-51.33,48.73A70,70,0,0,0,49.3,140Z"/><path class="cls-2" d="M171.2,48.75a16.31,16.31,0,0,1,16.3-16.31h23.14C227,32.44,238,40.59,238,54.29c0,11.34-7.3,17.73-15.91,19.43v1c9.91.71,20.15,7.49,20.15,21.51,0,16.17-13.63,25.24-31,25.24H171.2Zm21.32,19.88h10.36c9.85,0,14.09-4.3,14.09-10.63s-4.3-10.3-11.8-10.3H192.52Zm0,37.56h11.54c11.54,0,16.3-4.5,16.3-11.74s-4.76-12-14.15-12H192.52Z"/><path class="cls-2" d="M315.3,121.45H295V110.69h-1c-2,5.34-8.28,11.8-20.08,11.8-14,0-23.28-8.35-23.28-25V51.81h20.93V92.1c0,10.5,5.87,13.05,11.22,13.05,6.32,0,11.6-4.31,11.6-13.24V51.81H315.3Z"/><path class="cls-2" d="M340.05,27.75h4.63v93.7H323.75V44.06A16.31,16.31,0,0,1,340.05,27.75Z"/><path class="cls-2" d="M352.83,27.75h4.62a16.31,16.31,0,0,1,16.31,16.31v77.39H352.83Z"/><path class="cls-2" d="M381.78,89.11V83.56c0-21.64,13.88-33.05,32.21-33.05,19.43,0,31.95,12.84,31.95,33.38v7H402.18v2.34c0,8.87,5.48,14.15,12.65,14.15,6.2,0,10.83-3.06,11.68-8.21h19c-1,10.95-10,23.6-30.71,23.6C395.21,122.75,381.78,111.27,381.78,89.11Zm44.14-10.24V78.8c0-7.69-4.63-13.36-11.74-13.36s-12,5.67-12,13.36v.07Z"/><path class="cls-2" d="M460.25,35.64h4A16.17,16.17,0,0,1,480.4,51.81h13.3V67.65H480.4V97.91c0,6.13,3.06,8.21,9.39,8.21,1.63,0,3.39-.06,4.11-.13v15.64h-9.13c-17.87,0-25-5.48-25-20v-34H449.56V51.81h10.69Z"/></svg>
